# AST/ASF file generated using VICON BodyLanguage
# -----------------------------------------------
:version 1.10
:name VICON
:units
  mass 1.0
  length 0.45
  angle deg
:documentation
   .ast/.asf automatically generated from VICON data using
   VICON BodyBuilder and BodyLanguage model FoxedUp or BRILLIANT.MOD
:root
   order TX TY TZ RX RY RZ
   axis XYZ
   position 0 0 0  
   orientation 0 0 0 
:bonedata
  begin
     id 1 
     name lhipjoint
     direction 0.643824 -0.71708 0.266994 
     length 2.52133 
     axis 0 0 0  XYZ
  end
  begin
     id 2 
     name lfemur
     direction 0.34202 -0.939693 0  
     length 7.51824  
     axis 0 0 20  XYZ
    dof rx ry rz
    limits (-160.0 20.0)
           (-70.0 70.0)
           (-60.0 70.0)
  end
  begin
     id 3 
     name ltibia
     direction 0.34202 -0.939693 0   
     length 7.3685   
     axis 0 0 20   XYZ
    dof rx
    limits (-10.0 170.0)
  end
  begin
     id 4 
     name lfoot
     direction 0.105419 -0.289636 0.951314   
     length 2.20972   
     axis -90 7.62852e-016 20   XYZ
    dof rx rz
    limits (-45.0 90.0)
           (-70.0 20.0)
  end
  begin
     id 5 
     name ltoes
     direction 1.53549e-011 -4.21833e-011 1   
     length 1.10139   
     axis -90 7.62852e-016 20   XYZ
    dof rx
    limits (-90.0 20.0)
  end
  begin
     id 6 
     name rhipjoint
     direction -0.608823 -0.743445 0.276811   
     length 2.43192  
     axis 0 0 0  XYZ 
  end
  begin
     id 7 
     name rfemur
     direction -0.34202 -0.939693 0   
     length 7.69715   
     axis 0 0 -20   XYZ
    dof rx ry rz
    limits (-160.0 20.0)
           (-70.0 70.0)
           (-70.0 60.0)
  end
  begin
     id 8 
     name rtibia
     direction -0.34202 -0.939693 0   
     length 7.44924   
     axis 0 0 -20   XYZ
    dof rx
    limits (-10.0 170.0)
 end
 begin
     id 9 
     name rfoot
     direction -0.103614 -0.284677 0.953007   
     length 2.22623  
     axis -90 -7.62852e-016 -20   XYZ
    dof rx rz
    limits (-45.0 90.0)
           (-20.0 70.0)
  end
  begin
     id 10 
     name rtoes
     direction -1.53537e-011 -4.22026e-011 1   
     length 1.11   
     axis -90 -7.62852e-016 -20   XYZ
    dof rx
    limits (-90.0 20.0)
  end
  begin
     id 11 
     name lowerback
     direction -0.0101212 0.99662 -0.0815298   
     length 2.08277   
     axis 0 0 0   XYZ
    dof rx ry rz
    limits (-20.0 45.0)
           (-30.0 30.0)
           (-30.0 30.0)
  end
  begin
     id 12 
     name upperback
     direction 0.024314 0.999591 -0.0150645   
     length 2.08524   
     axis 0 0 0   XYZ
    dof rx ry rz
    limits (-20.0 45.0)
           (-30.0 30.0)
           (-30.0 30.0)
  end
  begin
     id 13 
     name thorax
     direction 0.0285959 0.999323 0.0231357   
     length 2.09645   
     axis 0 0 0   XYZ
    dof rx ry rz
    limits (-20.0 45.0)
           (-30.0 30.0)
           (-30.0 30.0)
  end
  begin
     id 14 
     name lowerneck
     direction -0.065512 0.979301 0.191515   
     length 1.63798   
     axis 0 0 0   XYZ
    dof rx ry rz
    limits (-20.0 45.0)
           (-30.0 30.0)
           (-30.0 30.0)
  end
  begin
     id 15 
     name upperneck
     direction 0.0498479 0.98191 -0.182667   
     length 1.68731   
     axis 0 0 0   XYZ
    dof rx ry rz
    limits (-20.0 45.0)
           (-30.0 30.0)
           (-30.0 30.0)
  end
  begin
     id 16
     name head
     direction 0.0230358 0.996257 -0.0833175  
     length 1.69785  
     axis 0 0 0   XYZ
    dof rx ry rz
    limits (-20.0 45.0)
           (-30.0 30.0)
           (-30.0 30.0)
  end
  begin
     id 17 
     name lclavicle
     direction 0.967963 0.201165 -0.150269  
     length 3.63976  
     axis 0 0 0   XYZ
    dof ry rz
    limits (-20.0 10.0)
           (0.0 20.0)
  end
  begin
     id 18 
     name lhumerus
     direction 1 -4.48954e-011 -2.92837e-028   
     length 5.32462   
     axis 180 -30 -90   XYZ
    dof rx ry rz
    limits (-60.0 90.0)
           (-90.0 90.0)
           (-90.0 90.0)
  end
  begin
     id 19
     name lradius
     direction 1 -4.48958e-011 -6.39511e-027   
     length 3.48402   
     axis 180 -30 -90   XYZ
    dof rx
    limits (-10.0 170.0)
  end
  begin
     id 20
     name lwrist
     direction 1 -4.48975e-011 -1.1413e-026   
     length 1.74201   
     axis 6.88575e-015 90 90   XYZ
    dof ry
    limits (-180.0 0.0)
 end
  begin
     id 21 
     name lhand
     direction 1 -4.48899e-011 -2.28192e-026   
     length 0.572476   
     axis 1.45643e-014 90 90   XYZ
    dof rx rz
    limits (-90.0 90.0)
           (-45.0 45.0)
  end
  begin
     id 22 
     name lfingers
     direction 1 -4.49155e-011 -4.5684e-026   
     length 0.461545   
     axis 2.91283e-014 90 90   XYZ
    dof rx
    limits (0.0 90.0)
  end
  begin
     id 23
     name lthumb
     direction 0.707107 -6.34943e-011 0.707107   
     length 0.662688   
     axis -90 45 -2.25915e-014   XYZ
    dof rx rz
    limits (-45.0 45.0)
           (-45.0 45.0)
  end
  begin
     id 24 
     name rclavicle
     direction -0.964103 0.264019 -0.0282629   
     length 3.54491  
     axis 0 0 0   XYZ 
    dof ry rz
    limits (-10.0 20.0)
           (-20.0 0.0)
  end
  begin
     id 25 
     name rhumerus
     direction -1 -4.48964e-011 -2.45032e-027  
     length 5.33589   
     axis 180 30 90   XYZ
    dof rx ry rz
    limits (-90.0 60.0)
           (-90.0 90.0)
           (-90.0 90.0)
  end
  begin
     id 26 
     name rradius
     direction -1 -4.48987e-011 -1.55093e-027   
     length 3.64134   
     axis 180 30 90   XYZ
    dof rx
    limits (-10.0 170.0)
  end
  begin
     id 27 
     name rwrist
     direction -1 -4.4897e-011 -1.14128e-026   
     length 1.82067   
     axis 6.88575e-015 -90 -90   XYZ
    dof ry
    limits (-180.0 0.0)
  end
  begin
     id 28
     name rhand
     direction -1 -4.49021e-011 -2.28301e-026   
     length 0.734811   
     axis 1.45643e-014 -90 -90   XYZ
    dof rx rz
    limits (-90.0 90.0)
           (-45.0 45.0)
  end
  begin
     id 29
     name rfingers
     direction -1 -4.48862e-011 -4.56319e-026   
     length 0.592424   
     axis 2.91283e-014 -90 -90   XYZ
    dof rx
    limits (0.0 90.0)
  end
  begin
     id 30
     name rthumb
     direction -0.707107 -6.34978e-011 0.707107   
     length 0.850605   
     axis -90 -45 2.25915e-014   XYZ
    dof rx rz
    limits (-45.0 45.0)
           (-45.0 45.0)
  end
:hierarchy
  begin
    root lhipjoint rhipjoint lowerback
    lhipjoint lfemur
    lfemur ltibia
    ltibia lfoot
    lfoot ltoes
    rhipjoint rfemur
    rfemur rtibia
    rtibia rfoot
    rfoot rtoes
    lowerback upperback
    upperback thorax
    thorax lowerneck lclavicle rclavicle
    lowerneck upperneck
    upperneck head
    lclavicle lhumerus
    lhumerus lradius
    lradius lwrist
    lwrist lhand lthumb
    lhand lfingers
    rclavicle rhumerus
    rhumerus rradius
    rradius rwrist
    rwrist rhand rthumb
    rhand rfingers
  end

#!OML:ASF F:\VICON\USERDATA\INSTALL\rory3\rory3.ASF
:FULLY-SPECIFIED
:DEGREES
83
root -8.13492 17.9025 2.54075 347.65 85.1554 341.908
lowerback 6.04792 -1.43023 -2.06857
upperback 1.82603 -1.8895 3.8032
thorax -1.30729 -0.923545 5.23457
lowerneck -10.9215 1.41419 -7.13196
upperneck 40.1729 6.37707 -0.159856
head 15.9829 2.19019 2.40633
rclavicle -1.05356e-014 -1.59028e-014
rhumerus -31.8063 -7.87182 -77.931
rradius 36.1706
rwrist 24.1954
rhand -20.1515 6.50397
rfingers 7.12502
rthumb 6.19359 -23.3855
lclavicle -1.05356e-014 -1.59028e-014
lhumerus -26.2114 1.4343 88.9703
lradius 29.0524
lwrist -8.9325
lhand -9.90132 25.3662
lfingers 7.12502
lthumb 16.0787 54.7192
rfemur -24.2324 -3.2864 30.2655
rtibia 26.018
rfoot -13.6351 -17.2922
rtoes 23.4665
lfemur -17.5723 2.10755 -16.1505
ltibia 60.0049
lfoot -2.31218 -11.0315
ltoes -25.2506
84
root -8.04392 17.9039 2.52977 347.656 84.5303 342.065
lowerback 6.12898 -1.38966 -1.74768
upperback 1.90553 -1.81514 3.78699
thorax -1.28945 -0.886376 5.03082
lowerneck -10.7139 1.50626 -7.16866
upperneck 40.119 6.55871 -0.300128
head 15.9057 2.24847 2.37117
rclavicle 4.17448e-015 -2.38542e-014
rhumerus -31.5813 -8.08996 -77.9116
rradius 36.5256
rwrist 23.8489
rhand -19.8819 6.71795
rfingers 7.12502
rthumb 6.45385 -23.1637
lclavicle 4.17448e-015 -2.38542e-014
lhumerus -26.0343 1.74917 88.6627
lradius 29.31
lwrist -8.77256
lhand -9.71102 25.1589
lfingers 7.12502
lthumb 16.2619 54.4969
rfemur -23.7736 -3.292 30.4401
rtibia 26.1689
rfoot -13.6158 -16.7224
rtoes 22.8658
lfemur -18.4818 2.26947 -15.9786
ltibia 60.7091
lfoot -3.00398 -9.35298
ltoes -26.3864
85
root -7.95315 17.9 2.51942 347.946 83.8621 342.485
lowerback 6.19606 -1.31556 -1.45779
upperback 1.93925 -1.69843 3.75829
thorax -1.31364 -0.827005 4.82931
lowerneck -10.4488 1.58901 -7.18073
upperneck 40.1312 6.70981 -0.392361
head 15.8484 2.30551 2.34859
rclavicle -3.04141e-014 2.46493e-014
rhumerus -31.4829 -8.32389 -77.9254
rradius 36.8642
rwrist 23.7977
rhand -20.0886 6.60704
rfingers 7.12502
rthumb 6.25424 -23.2806
lclavicle -3.04141e-014 2.46493e-014
lhumerus -25.9066 2.14972 88.3357
lradius 29.4963
lwrist -8.63992
lhand -9.64761 24.8916
lfingers 7.12502
lthumb 16.323 54.2247
rfemur -23.3451 -3.34345 30.6068
rtibia 26.2922
rfoot -13.4366 -16.1424
rtoes 22.0327
lfemur -19.3972 2.44124 -15.828
ltibia 61.2951
lfoot -3.75489 -7.87832
ltoes -26.3257
86
root -7.86362 17.899 2.51005 347.554 83.1802 342.131
lowerback 6.17941 -1.28702 -1.11794
upperback 1.96237 -1.63846 3.76924
thorax -1.29606 -0.796466 4.64239
lowerneck -10.259 1.68793 -7.23544
upperneck 40.1615 6.89292 -0.462004
head 15.8151 2.36874 2.35037
rclavicle 2.92213e-014 5.56597e-015
rhumerus -31.3559 -8.32538 -78.0736
rradius 37.2075
rwrist 23.7308
rhand -20.6093 6.19569
rfingers 7.12502
rthumb 5.75161 -23.7063
lclavicle 2.92213e-014 5.56597e-015
lhumerus -25.8037 2.56511 88.0128
lradius 29.7322
lwrist -8.40501
lhand -9.86997 24.9581
lfingers 7.12502
lthumb 16.1089 54.3086
rfemur -23.0247 -3.27804 30.848
rtibia 26.4526
rfoot -13.3924 -15.6149
rtoes 21.4878
lfemur -20.4266 2.6076 -15.5383
ltibia 61.7444
lfoot -4.473 -6.88527
ltoes -25.2448
87
root -7.77434 17.8983 2.50057 347.965 82.5329 342.624
lowerback 6.21847 -1.20196 -0.802331
upperback 1.98936 -1.50795 3.67836
thorax -1.31289 -0.730639 4.35976
lowerneck -10.1359 1.69648 -7.22581
upperneck 40.2615 6.92973 -0.505475
head 15.8406 2.37976 2.33524
rclavicle -2.0773e-014 -1.51076e-014
rhumerus -31.2759 -8.39247 -78.2802
rradius 37.6006
rwrist 23.3953
rhand -21.1566 5.52415
rfingers 7.12502
rthumb 5.22312 -24.3915
lclavicle -2.0773e-014 -1.51076e-014
lhumerus -25.6428 2.69575 87.8089
lradius 29.878
lwrist -7.60995
lhand -10.4711 25.3561
lfingers 7.12502
lthumb 15.5299 54.7524
rfemur -22.6866 -3.02712 30.9228
rtibia 26.6994
rfoot -13.54 -15.1576
rtoes 21.0837
lfemur -21.3798 2.54037 -15.3854
ltibia 62.0493
lfoot -5.14464 -6.04896
ltoes -23.7012
88
root -7.68633 17.8925 2.48976 349.149 81.9081 343.872
lowerback 6.22867 -1.12643 -0.644989
upperback 2.00922 -1.40043 3.60201
thorax -1.31294 -0.677058 4.18322
lowerneck -9.99326 1.73781 -7.28985
upperneck 40.3423 7.04506 -0.578499
head 15.8488 2.41059 2.33068
rclavicle 1.75924e-014 7.15625e-015
rhumerus -31.1548 -8.32711 -78.4214
rradius 38.0033
rwrist 23.0303
rhand -21.7514 4.99566
rfingers 7.12502
rthumb 4.6488 -24.9333
lclavicle 1.75924e-014 7.15625e-015
lhumerus -25.4876 2.55494 87.856
lradius 30.1051
lwrist -5.82286
lhand -11.4014 26.0632
lfingers 7.12502
lthumb 14.6337 55.5269
rfemur -22.4707 -2.9112 30.9019
rtibia 27.072
rfoot -13.5353 -14.7156
rtoes 20.1166
lfemur -22.3116 2.27495 -15.3932
ltibia 62.193
lfoot -5.78364 -5.31429
ltoes -22.0638
